<svg width="19" height="19" viewBox="0 0 19 19" fill="none" xmlns="http://www.w3.org/2000/svg">
<path fill-rule="evenodd" clip-rule="evenodd" d="M5.20847 7.26736L6.69401 5.71344C6.9641 5.44319 7.09915 4.83513 6.69401 4.42976L3.85799 1.25434C3.85799 1.25434 3.18275 0.781405 2.57503 1.11922C2.03484 1.45703 -0.12594 3.14608 0.481778 6.86199C1.15702 10.9833 8.38211 18.28 12.5011 18.888C16.2149 19.4961 17.903 17.4017 18.2407 16.7936C18.5783 16.1856 18.1731 15.5099 18.1731 15.5099L14.932 12.6723C14.3918 12.1318 13.9191 12.4021 13.649 12.6723L12.1635 14.1587C11.0156 14.9694 4.39818 8.34836 5.20847 7.26736Z" fill="#33CDBA"/>
</svg>
