<svg width="12" height="15" viewBox="0 0 12 15" fill="none" xmlns="http://www.w3.org/2000/svg">
<path fill-rule="evenodd" clip-rule="evenodd" d="M0.779541 14.7269H2.65756V10.7259H2.712C3.20192 11.5152 4.18176 12.2228 5.67874 12.2228C9.46201 12.2228 11.0134 8.65732 11.0134 5.98998C11.0134 2.85994 8.91765 0.437561 5.95091 0.437561C3.9368 0.437561 3.06583 1.68958 2.63035 2.3428H2.5487V0.764169H0.779541V14.7269ZM2.57591 6.83373C2.57591 5.01014 2.87531 2.09784 5.56987 2.09784C8.45495 2.09784 9.05374 4.84684 9.05374 6.26216C9.05374 8.71176 7.66563 10.5626 5.6243 10.5626C4.42672 10.5898 2.57591 9.80047 2.57591 6.83373Z" fill="#0271EE"/>
</svg>
