<svg width="10" height="13" viewBox="0 0 10 13" fill="none" xmlns="http://www.w3.org/2000/svg">
<path d="M9.40838 3.92329C9.40838 3.37893 9.13621 0.412201 5.1352 0.412201C2.93056 0.412201 0.916447 1.52813 0.916447 3.97773C0.916447 5.50192 1.95072 6.29124 3.50213 6.67228L5.67955 7.21664C7.2854 7.62491 7.88419 7.9243 7.88419 8.82249C7.88419 10.0473 6.65939 10.5916 5.32572 10.5916C2.6856 10.5916 2.44064 9.17632 2.35899 8.30535H0.5354C0.589836 9.63902 0.916442 12.1975 5.32572 12.1975C7.82975 12.1975 9.735 10.8094 9.735 8.52309C9.735 6.99889 8.91847 6.15515 6.60496 5.58357L4.72693 5.12087C3.28439 4.76704 2.71282 4.5493 2.71282 3.62389C2.71282 2.23579 4.34588 2.04527 4.91745 2.04527C7.2854 2.04527 7.53036 3.21563 7.55758 3.92329H9.40838Z" fill="#0271EE"/>
</svg>
