<svg width="23" height="28" viewBox="0 0 23 28" fill="none" xmlns="http://www.w3.org/2000/svg">
<path d="M13.373 0.0835938C12.8558 0.192465 4.44553 1.96162 0.771137 11.0796C0.771137 11.0796 -3.06657 20.9324 6.37799 25.8044C6.37799 25.8044 12.1754 29.3427 18.8165 24.253C18.8165 24.253 24.0423 21.1501 22.4365 12.9032C22.4365 12.9032 21.6199 8.84771 18.4082 6.72473C18.4082 6.72473 15.5504 5.58158 16.4486 8.54832C16.4486 8.54832 18.2722 10.9707 18.6804 13.2026C18.6804 13.2026 19.6603 19.0544 12.7742 20.3064C12.7742 20.3064 6.2419 20.4153 6.02416 13.7197C6.02416 13.7197 5.56146 9.31042 12.3931 5.69045C12.3931 5.69045 15.1421 4.60174 15.9042 2.64206C15.9042 2.61484 16.5302 -0.542415 13.373 0.0835938Z" fill="#0271EE"/>
</svg>
