<svg width="11" height="13" viewBox="0 0 11 13" fill="none" xmlns="http://www.w3.org/2000/svg">
<path fill-rule="evenodd" clip-rule="evenodd" d="M2.22176 5.44749C2.22176 3.73277 3.58264 2.12692 5.32458 2.12692C7.61087 2.12692 8.31854 3.73277 8.42741 5.44749H2.22176ZM8.34575 8.387C8.29132 9.20353 7.22982 10.5916 5.46067 10.5916C3.31046 10.5916 2.22176 9.25797 2.22176 6.91724H10.3599C10.3599 2.97067 8.78124 0.412201 5.56955 0.412201C1.89515 0.412201 0.234863 3.16119 0.234863 6.61785C0.234863 9.82954 2.08567 12.1975 5.21571 12.1975C7.01208 12.1975 7.71975 11.762 8.23688 11.4354C9.65221 10.51 10.1693 8.93135 10.2238 8.387H8.34575Z" fill="#0271EE"/>
</svg>
