<svg width="12" height="13" viewBox="0 0 12 13" fill="none" xmlns="http://www.w3.org/2000/svg">
<path fill-rule="evenodd" clip-rule="evenodd" d="M8.20998 8.03131C8.20998 9.52829 6.49527 10.6442 4.75333 10.6442C3.33801 10.6442 2.73922 9.90934 2.73922 8.71176C2.73922 7.29643 4.20898 7.02425 5.13438 6.88816C7.44789 6.58877 7.93781 6.42546 8.2372 6.1805V8.03131H8.20998ZM3.09305 4.13917C3.22914 3.29542 3.52853 1.98897 5.65152 1.98897C7.42067 1.98897 8.26442 2.61498 8.26442 3.81256C8.26442 4.92849 7.72007 5.09179 7.28458 5.14623L4.18176 5.52728C1.07894 5.90832 0.779541 8.08575 0.779541 9.01115C0.779541 10.9436 2.22208 12.2228 4.26341 12.2228C6.44083 12.2228 7.55676 11.1886 8.29164 10.3993C8.34608 11.243 8.61825 12.114 10.2785 12.114C10.714 12.114 10.9862 11.9779 11.3128 11.8962V10.5353C11.0951 10.5898 10.8773 10.617 10.6868 10.617C10.3058 10.617 10.0608 10.4265 10.0608 9.96378V3.54038C10.0608 0.682519 6.82188 0.437561 5.92369 0.437561C3.1747 0.437561 1.40555 1.47183 1.3239 4.13917H3.09305Z" fill="#0271EE"/>
</svg>
