<svg width="21" height="14" viewBox="0 0 21 14" fill="none" xmlns="http://www.w3.org/2000/svg">
<path opacity="0.9" d="M1.51851 0.248585C0.677118 0.248585 -0.000244141 0.871446 -0.000244141 1.64513V12.352C-0.000244141 13.1257 0.677118 13.7486 1.51851 13.7486H18.731C19.5724 13.7486 20.2498 13.1257 20.2498 12.352V1.64513C20.2498 0.871446 19.5724 0.248585 18.731 0.248585H1.51851ZM2.52311 2.56891C2.59794 2.56123 2.67369 2.56899 2.74485 2.59164C2.81601 2.61428 2.88078 2.65125 2.93444 2.69982L9.44448 8.37331C9.84708 8.72431 10.3936 8.71703 10.7971 8.3661L17.3151 2.69986C17.3634 2.65784 17.4202 2.62496 17.4823 2.60313C17.5444 2.5813 17.6106 2.57094 17.6771 2.57263C17.7436 2.57432 17.809 2.58802 17.8698 2.61298C17.9305 2.63793 17.9852 2.67363 18.031 2.71805C18.0767 2.76247 18.1124 2.81473 18.1361 2.87185C18.1599 2.92897 18.1712 2.98984 18.1693 3.05096C18.1675 3.11209 18.1526 3.17228 18.1254 3.2281C18.0983 3.28393 18.0595 3.3343 18.0112 3.37633L13.9928 6.86772L18.0191 10.6282C18.0675 10.6714 18.106 10.7229 18.1324 10.7799C18.1588 10.8369 18.1726 10.8982 18.1729 10.9602C18.1732 11.0221 18.1601 11.0835 18.1343 11.1407C18.1085 11.198 18.0705 11.2499 18.0226 11.2935C17.9747 11.337 17.9179 11.3714 17.8553 11.3945C17.7928 11.4176 17.7259 11.4289 17.6585 11.4279C17.5912 11.427 17.5247 11.4136 17.463 11.3887C17.4013 11.3638 17.3456 11.3278 17.2993 11.2828L13.2572 7.50781L11.4932 9.04254C10.7239 9.7117 9.50951 9.71298 8.74047 9.04254L6.98444 7.51508L2.95023 11.2828C2.90386 11.3278 2.8482 11.3638 2.78651 11.3887C2.72483 11.4136 2.65835 11.427 2.59098 11.4279C2.52361 11.4289 2.4567 11.4176 2.39418 11.3945C2.33166 11.3714 2.27478 11.337 2.22687 11.2935C2.17897 11.2499 2.141 11.198 2.11519 11.1407C2.08939 11.0835 2.07627 11.0221 2.0766 10.9602C2.07693 10.8982 2.09071 10.8369 2.11712 10.7799C2.14353 10.7229 2.18205 10.6714 2.23042 10.6282L6.24878 6.875L2.23834 3.37633C2.1662 3.31608 2.1145 3.23795 2.08946 3.15134C2.06441 3.06474 2.06708 2.97332 2.09715 2.88807C2.12722 2.80282 2.1834 2.72737 2.25896 2.67077C2.33452 2.61416 2.42624 2.57882 2.52311 2.56897V2.56891Z" fill="#43ACFF"/>
</svg>
