<svg width="14" height="14" viewBox="0 0 14 14" fill="none" xmlns="http://www.w3.org/2000/svg">
<path d="M13.501 0.252592H0.808638C0.743632 0.25098 0.678958 0.262353 0.618401 0.286044C0.557845 0.309734 0.502623 0.345267 0.455967 0.390561C0.409312 0.435856 0.372161 0.490002 0.346689 0.549831C0.321217 0.60966 0.307935 0.673969 0.307622 0.738994V8.964C0.307036 9.09842 0.359176 9.22771 0.452848 9.32411C0.546521 9.42052 0.674259 9.47635 0.808638 9.47963H8.59776L11.3116 12.7333C11.826 13.3508 12.2468 13.1926 12.2468 12.3876V9.47963H13.4994C13.6337 9.47635 13.7615 9.42052 13.8551 9.32411C13.9488 9.22771 14.001 9.09842 14.0004 8.964V0.738994C14.0001 0.674113 13.9868 0.609944 13.9615 0.550227C13.9361 0.490511 13.8991 0.436441 13.8526 0.391169C13.8061 0.345897 13.7511 0.310328 13.6908 0.286536C13.6304 0.262745 13.5659 0.251206 13.501 0.252592Z" fill="white"/>
</svg>
