<svg width="18" height="14" viewBox="0 0 18 14" fill="none" xmlns="http://www.w3.org/2000/svg">
<path d="M1.73575 5.63429L14.0338 5.64163L10.8192 2.16814C10.3958 1.70939 10.4414 1.00464 10.9219 0.601002C11.4023 0.197367 12.1409 0.241611 12.5644 0.700362L17.5114 6.04634C17.521 6.05571 17.521 6.05571 17.5306 6.06509C17.5403 6.07446 17.5498 6.09311 17.5692 6.10257C17.5787 6.12122 17.5883 6.1306 17.5979 6.14925C17.6075 6.15862 17.6171 6.17727 17.6266 6.19592C17.6362 6.21457 17.6458 6.22394 17.6553 6.24259C17.6649 6.26124 17.6745 6.27061 17.6841 6.28926C17.6936 6.30791 17.7031 6.32656 17.7128 6.33593C17.7223 6.35458 17.7222 6.36386 17.7318 6.38251C17.7413 6.40116 17.7411 6.41972 17.7508 6.42909C17.7603 6.44774 17.7602 6.45702 17.7698 6.47567C17.7793 6.49432 17.7791 6.51287 17.779 6.53143C17.7788 6.54998 17.7884 6.55935 17.7882 6.57791C17.7881 6.59647 17.7976 6.61512 17.7973 6.64295C17.7972 6.66151 17.7971 6.67078 17.8066 6.68943C17.8156 6.76375 17.815 6.8287 17.8046 6.90283C17.8044 6.92139 17.8043 6.93066 17.7944 6.94913C17.7942 6.96768 17.7843 6.98614 17.784 7.01398C17.7839 7.03253 17.774 7.04172 17.7739 7.06027C17.7737 7.07883 17.7638 7.09729 17.7636 7.11585C17.7537 7.13431 17.7535 7.15287 17.7437 7.16205C17.7338 7.18051 17.7336 7.19907 17.7238 7.20825C17.7139 7.22672 17.7138 7.23599 17.7039 7.25446C17.694 7.27292 17.6841 7.29138 17.6743 7.30056C17.6644 7.31903 17.6546 7.32821 17.6447 7.34667C17.6348 7.36513 17.625 7.37432 17.6151 7.39278C17.6052 7.41124 17.5953 7.42043 17.5854 7.43889C17.5755 7.45735 17.5657 7.46654 17.5558 7.485C17.546 7.49418 17.5361 7.51264 17.5166 7.52173C17.5068 7.53092 17.5068 7.53092 17.4969 7.5401L12.4477 12.7896C12.212 13.0286 11.8996 13.1555 11.5787 13.1524C11.2967 13.1497 11.0254 13.0543 10.8036 12.8573C10.3311 12.4444 10.299 11.7389 10.7312 11.2884L14.0123 7.86835L1.71426 7.86102C1.07248 7.85482 0.552228 7.34874 0.558137 6.7364C0.564047 6.12405 1.09397 5.6281 1.73575 5.63429Z" fill="white"/>
</svg>
